# xmcd
#
# Track frame offsets:
#	150
#	14846
#	28542
#	43598
#	68378
#	89622
#	111426
#	146453
#	169102
#	190628
#	207720
#	232386
#
# Disc length: 3456 seconds
#
# Revision: 0
# Processed by: cddbd v1.5.2PL0 Copyright (c) Steve Scherf et al.
# Submitted via: dBpowerAMP V4.0
#
DISCID=ae0d7e0c
DTITLE=Mo' Kauffey - Dig It
DYEAR=2010
DGENRE=Blues
TTITLE0=Hot Tub Mambo
TTITLE1=Know You Rider
TTITLE2=Poor Boy
TTITLE3=Chick Safari
TTITLE4=Magnolia
TTITLE5=Dig It
TTITLE6=Tom Thumb's Blues
TTITLE7=Navajo Rug
TTITLE8=Mellow Down
TTITLE9=Scramble
TTITLE10=Who'da Thunk It
TTITLE11=Blues Palace
EXTD=
EXTT0=
EXTT1=
EXTT2=
EXTT3=
EXTT4=
EXTT5=
EXTT6=
EXTT7=
EXTT8=
EXTT9=
EXTT10=
EXTT11=
PLAYORDER=
